<?xml version="1.0" encoding="UTF-8" standalone="no"?>
<!DOCTYPE svg PUBLIC "-//W3C//DTD SVG 1.1//EN" "http://www.w3.org/Graphics/SVG/1.1/DTD/svg11.dtd">
<svg width="100%" height="100%" viewBox="0 0 925 925" version="1.1" xmlns="http://www.w3.org/2000/svg" xmlns:xlink="http://www.w3.org/1999/xlink" xml:space="preserve" style="fill-rule:evenodd;clip-rule:evenodd;stroke-linejoin:round;stroke-miterlimit:1.41421;">
    <g transform="matrix(1,0,0,1,-777.657,-605.535)">
        <g transform="matrix(1,0,0,1,-13443.2,0)">
            <g transform="matrix(1,0,0,1,13443.2,0)">
                <path d="M1537.16,1201.76L943.157,1201.76L1240.16,792.763L1537.16,1201.76ZM1257.81,852.528L1211.46,867.734L984.033,1180.93L1496.28,1180.93L1257.81,852.528Z"/>
            </g>
        </g>
        <g transform="matrix(1,0,0,1,-13443.2,0)">
            <g transform="matrix(0.975738,-3.09503e-17,-2.73958e-17,0.975531,421.031,-1792.32)">
                <rect x="14143" y="2458" width="948" height="948" style="fill:none;"/>
            </g>
        </g>
        <g transform="matrix(1,0,0,1,-13443.2,0)">
            <g transform="matrix(2.43787,-0.761339,-0.260109,0.641127,13614.6,195.302)">
                <rect x="615" y="1929" width="103.342" height="56" style="fill:rgb(14,187,255);"/>
            </g>
        </g>
        <g transform="matrix(1,0,0,1,-13443.2,0)">
            <g transform="matrix(2.43787,-0.761339,-0.260109,0.641127,13573,297.883)">
                <rect x="662.44" y="1929" width="55.902" height="56" style="fill:rgb(28,255,149);"/>
            </g>
        </g>
        <g transform="matrix(1,0,0,1,-13443.2,0)">
            <g transform="matrix(2.43787,-0.761339,-0.260109,0.641127,13552.2,349.173)">
                <rect x="615" y="1929" width="103.342" height="56" style="fill:rgb(2,196,96);"/>
            </g>
        </g>
        <g transform="matrix(1,0,0,1,-13443.2,0)">
            <g transform="matrix(2.43787,-0.761339,-0.260109,0.641127,13593.8,246.593)">
                <rect x="615" y="1929" width="63.201" height="56" style="fill:rgb(62,255,255);"/>
            </g>
        </g>
        <g transform="matrix(1,0,0,1,-13443.2,0)">
            <g transform="matrix(0.641431,0,0,0.641431,13431.9,1088.55)">
                <path d="M1588.53,258.715C1588.53,253.83 1592.89,249.984 1600.38,249.984C1607.03,249.984 1613.58,252.582 1620.12,257.467L1626.98,247.802C1619.6,241.877 1611.18,238.655 1600.58,238.655C1586.14,238.655 1575.74,247.178 1575.74,259.858C1575.74,273.369 1584.47,277.942 1599.96,281.684C1613.47,284.802 1616.38,287.608 1616.38,292.909C1616.38,298.521 1611.39,302.159 1603.49,302.159C1594.45,302.159 1587.49,298.729 1580.52,292.701L1572.83,301.847C1581.56,309.642 1592.06,313.488 1603.18,313.488C1618.46,313.488 1629.16,305.381 1629.16,291.662C1629.16,279.501 1621.16,273.993 1605.78,270.251C1591.85,266.925 1588.53,264.431 1588.53,258.715Z" style="fill:none;"/>
                <path d="M1676.04,270.979L1706.28,239.695L1690.59,239.695L1655.98,276.279L1655.98,239.695L1643.2,239.695L1643.2,312.449L1655.98,312.449L1655.98,291.35L1667.31,279.709L1692.15,312.449L1707.63,312.449L1676.04,270.979Z" style="fill:none;"/>
                <path d="M1750.46,283.451L1779.35,239.695L1764.69,239.695L1744.12,271.914L1723.75,239.695L1708.67,239.695L1737.57,283.763L1737.57,312.449L1750.46,312.449L1750.46,283.451Z" style="fill:none;"/>
                <path d="M1851.27,239.695L1818.64,239.695L1818.64,312.449L1852.31,312.449C1868.53,312.449 1879.23,305.485 1879.23,292.389C1879.23,282.412 1873.31,277.527 1864.78,274.617C1870.19,271.81 1875.18,267.237 1875.18,258.299C1875.18,246.866 1865.93,239.695 1851.27,239.695ZM1848.67,270.355L1831.21,270.355L1831.21,251.023L1849.61,251.023C1857.82,251.023 1862.39,254.453 1862.39,260.378C1862.39,267.133 1856.88,270.355 1848.67,270.355ZM1852.42,301.12L1831.21,301.12L1831.21,281.164L1851.48,281.164C1861.56,281.164 1866.45,284.802 1866.45,291.038C1866.45,297.69 1861.15,301.12 1852.42,301.12Z" style="fill:none;"/>
                <path d="M1896.8,312.449L1947.83,312.449L1947.83,300.808L1909.58,300.808L1909.58,239.695L1896.8,239.695L1896.8,312.449Z" style="fill:none;"/>
                <path d="M2001.87,239.175L1990.03,239.175L1958.01,312.449L1971.11,312.449L1978.59,294.884L2012.99,294.884L2020.37,312.449L2033.88,312.449L2001.87,239.175ZM2008.32,283.555L1983.27,283.555L1995.74,254.453L2008.32,283.555Z" style="fill:none;"/>
                <path d="M2088.76,251.023L2045.84,302.991L2045.84,312.449L2105.39,312.449L2105.39,301.12L2062.47,301.12L2105.39,249.153L2105.39,239.695L2047.19,239.695L2047.19,251.023L2088.76,251.023Z" style="fill:none;"/>
                <path d="M2178.46,239.695L2124.52,239.695L2124.52,312.449L2178.98,312.449L2178.98,301.016L2137.3,301.016L2137.3,281.476L2173.78,281.476L2173.78,270.043L2137.3,270.043L2137.3,251.127L2178.46,251.127L2178.46,239.695Z" style="fill:none;"/>
                <path d="M2259.01,312.449L2239.36,284.906C2249.55,282.1 2256.72,274.824 2256.72,262.768C2256.72,248.529 2246.43,239.695 2229.7,239.695L2197.27,239.695L2197.27,312.449L2210.05,312.449L2210.05,287.089L2226.06,287.089L2243.94,312.449L2259.01,312.449ZM2243.73,263.496C2243.73,270.979 2237.91,275.76 2228.76,275.76L2210.05,275.76L2210.05,251.335L2228.66,251.335C2238.12,251.335 2243.73,255.493 2243.73,263.496Z" style="fill:none;"/>
                <path d="M2285.3,258.715C2285.3,253.83 2289.67,249.984 2297.15,249.984C2303.8,249.984 2310.35,252.582 2316.9,257.467L2323.76,247.802C2316.38,241.877 2307.96,238.655 2297.36,238.655C2282.91,238.655 2272.52,247.178 2272.52,259.858C2272.52,273.369 2281.25,277.942 2296.73,281.684C2310.25,284.802 2313.16,287.608 2313.16,292.909C2313.16,298.521 2308.17,302.159 2300.27,302.159C2291.23,302.159 2284.26,298.729 2277.3,292.701L2269.61,301.847C2278.34,309.642 2288.84,313.488 2299.96,313.488C2315.24,313.488 2325.94,305.381 2325.94,291.662C2325.94,279.501 2317.94,273.993 2302.55,270.251C2288.63,266.925 2285.3,264.431 2285.3,258.715Z" style="fill:none;"/>
                <path d="M1588.53,258.715C1588.53,253.83 1592.89,249.984 1600.38,249.984C1607.03,249.984 1613.58,252.582 1620.12,257.467L1626.98,247.802C1619.6,241.877 1611.18,238.655 1600.58,238.655C1586.14,238.655 1575.74,247.178 1575.74,259.858C1575.74,273.369 1584.47,277.942 1599.96,281.684C1613.47,284.802 1616.38,287.608 1616.38,292.909C1616.38,298.521 1611.39,302.159 1603.49,302.159C1594.45,302.159 1587.49,298.729 1580.52,292.701L1572.83,301.847C1581.56,309.642 1592.06,313.488 1603.18,313.488C1618.46,313.488 1629.16,305.381 1629.16,291.662C1629.16,279.501 1621.16,273.993 1605.78,270.251C1591.85,266.925 1588.53,264.431 1588.53,258.715Z" style="fill-rule:nonzero;"/>
                <path d="M1676.04,270.979L1706.28,239.695L1690.59,239.695L1655.98,276.279L1655.98,239.695L1643.2,239.695L1643.2,312.449L1655.98,312.449L1655.98,291.35L1667.31,279.709L1692.15,312.449L1707.63,312.449L1676.04,270.979Z" style="fill-rule:nonzero;"/>
                <path d="M1750.46,283.451L1779.35,239.695L1764.69,239.695L1744.12,271.914L1723.75,239.695L1708.67,239.695L1737.57,283.763L1737.57,312.449L1750.46,312.449L1750.46,283.451Z" style="fill-rule:nonzero;"/>
                <path d="M1851.27,239.695L1818.64,239.695L1818.64,312.449L1852.31,312.449C1868.53,312.449 1879.23,305.485 1879.23,292.389C1879.23,282.412 1873.31,277.527 1864.78,274.617C1870.19,271.81 1875.18,267.237 1875.18,258.299C1875.18,246.866 1865.93,239.695 1851.27,239.695ZM1848.67,270.355L1831.21,270.355L1831.21,251.023L1849.61,251.023C1857.82,251.023 1862.39,254.453 1862.39,260.378C1862.39,267.133 1856.88,270.355 1848.67,270.355ZM1852.42,301.12L1831.21,301.12L1831.21,281.164L1851.48,281.164C1861.56,281.164 1866.45,284.802 1866.45,291.038C1866.45,297.69 1861.15,301.12 1852.42,301.12Z" style="fill-rule:nonzero;"/>
                <path d="M1896.8,312.449L1947.83,312.449L1947.83,300.808L1909.58,300.808L1909.58,239.695L1896.8,239.695L1896.8,312.449Z" style="fill-rule:nonzero;"/>
                <path d="M2001.87,239.175L1990.03,239.175L1958.01,312.449L1971.11,312.449L1978.59,294.884L2012.99,294.884L2020.37,312.449L2033.88,312.449L2001.87,239.175ZM2008.32,283.555L1983.27,283.555L1995.74,254.453L2008.32,283.555Z" style="fill-rule:nonzero;"/>
                <path d="M2088.76,251.023L2045.84,302.991L2045.84,312.449L2105.39,312.449L2105.39,301.12L2062.47,301.12L2105.39,249.153L2105.39,239.695L2047.19,239.695L2047.19,251.023L2088.76,251.023Z" style="fill-rule:nonzero;"/>
                <path d="M2178.46,239.695L2124.52,239.695L2124.52,312.449L2178.98,312.449L2178.98,301.016L2137.3,301.016L2137.3,281.476L2173.78,281.476L2173.78,270.043L2137.3,270.043L2137.3,251.127L2178.46,251.127L2178.46,239.695Z" style="fill-rule:nonzero;"/>
                <path d="M2259.01,312.449L2239.36,284.906C2249.55,282.1 2256.72,274.824 2256.72,262.768C2256.72,248.529 2246.43,239.695 2229.7,239.695L2197.27,239.695L2197.27,312.449L2210.05,312.449L2210.05,287.089L2226.06,287.089L2243.94,312.449L2259.01,312.449ZM2243.73,263.496C2243.73,270.979 2237.91,275.76 2228.76,275.76L2210.05,275.76L2210.05,251.335L2228.66,251.335C2238.12,251.335 2243.73,255.493 2243.73,263.496Z" style="fill-rule:nonzero;"/>
                <path d="M2285.3,258.715C2285.3,253.83 2289.67,249.984 2297.15,249.984C2303.8,249.984 2310.35,252.582 2316.9,257.467L2323.76,247.802C2316.38,241.877 2307.96,238.655 2297.36,238.655C2282.91,238.655 2272.52,247.178 2272.52,259.858C2272.52,273.369 2281.25,277.942 2296.73,281.684C2310.25,284.802 2313.16,287.608 2313.16,292.909C2313.16,298.521 2308.17,302.159 2300.27,302.159C2291.23,302.159 2284.26,298.729 2277.3,292.701L2269.61,301.847C2278.34,309.642 2288.84,313.488 2299.96,313.488C2315.24,313.488 2325.94,305.381 2325.94,291.662C2325.94,279.501 2317.94,273.993 2302.55,270.251C2288.63,266.925 2285.3,264.431 2285.3,258.715Z" style="fill-rule:nonzero;"/>
            </g>
        </g>
        <g transform="matrix(1,0,0,1,-13443.2,0)">
            <g transform="matrix(0.718147,0,0,0.718147,13301,1113.73)">
                <path d="M1623.48,305.556C1623.48,306.6 1623.29,307.563 1622.89,308.445C1622.5,309.327 1621.95,310.099 1621.25,310.76C1620.56,311.422 1619.73,311.938 1618.78,312.309C1617.83,312.681 1616.8,312.866 1615.68,312.866C1614.22,312.866 1612.9,312.657 1611.73,312.24C1610.56,311.822 1609.42,311.242 1608.3,310.499L1609.66,308.062C1610.64,308.759 1611.66,309.31 1612.73,309.716C1613.79,310.122 1614.83,310.325 1615.82,310.325C1616.64,310.325 1617.34,310.203 1617.95,309.96C1618.55,309.716 1619.05,309.385 1619.44,308.967C1619.84,308.55 1620.13,308.074 1620.33,307.54C1620.53,307.006 1620.63,306.449 1620.63,305.869C1620.63,305.312 1620.56,304.802 1620.42,304.337C1620.28,303.873 1620.03,303.432 1619.67,303.015C1619.31,302.597 1618.8,302.185 1618.14,301.779C1617.48,301.373 1616.62,300.937 1615.58,300.473C1614.47,299.986 1613.53,299.493 1612.76,298.994C1611.99,298.495 1611.37,297.961 1610.9,297.392C1610.42,296.824 1610.07,296.22 1609.85,295.582C1609.63,294.944 1609.52,294.242 1609.52,293.476C1609.52,292.548 1609.71,291.666 1610.08,290.83C1610.45,289.995 1610.98,289.258 1611.66,288.62C1612.35,287.982 1613.17,287.471 1614.13,287.088C1615.1,286.705 1616.16,286.514 1617.32,286.514C1618.41,286.514 1619.44,286.676 1620.42,287.001C1621.39,287.326 1622.25,287.744 1623,288.254L1621.74,290.622C1621.12,290.157 1620.4,289.78 1619.6,289.49C1618.8,289.2 1617.98,289.055 1617.15,289.055C1616.36,289.055 1615.65,289.171 1615.04,289.403C1614.42,289.635 1613.92,289.943 1613.53,290.326C1613.13,290.709 1612.83,291.161 1612.62,291.683C1612.41,292.205 1612.31,292.757 1612.31,293.337C1612.31,294.219 1612.64,295.031 1613.3,295.774C1613.96,296.516 1615.08,297.247 1616.66,297.967C1617.98,298.57 1619.08,299.145 1619.97,299.69C1620.85,300.235 1621.55,300.798 1622.07,301.378C1622.6,301.959 1622.96,302.585 1623.17,303.258C1623.38,303.931 1623.48,304.697 1623.48,305.556Z" style="fill:none;"/>
                <path d="M1643.74,312.449L1632.22,299.916L1632.22,312.449L1629.43,312.449L1629.43,286.932L1632.22,286.932L1632.22,298.802L1643.33,286.932L1646.84,286.932L1635.01,299.325L1647.4,312.449L1643.74,312.449Z" style="fill:none;"/>
                <path d="M1661.67,301.135L1661.67,312.449L1658.89,312.449L1658.89,301.1L1649.94,286.932L1653.07,286.932L1660.38,298.768L1667.59,286.932L1670.65,286.932L1661.67,301.135Z" style="fill:none;"/>
                <path d="M1674.27,311.265C1674.27,311.683 1674.2,312.124 1674.05,312.588C1673.9,313.052 1673.67,313.522 1673.38,313.998C1673.1,314.473 1672.72,314.938 1672.27,315.39C1671.82,315.843 1671.28,316.255 1670.65,316.626L1670.27,316.069C1670.92,315.512 1671.42,314.926 1671.77,314.311C1672.11,313.696 1672.36,313.133 1672.5,312.623C1671.94,312.576 1671.5,312.385 1671.17,312.048C1670.85,311.712 1670.69,311.311 1670.69,310.847C1670.69,310.383 1670.86,309.983 1671.19,309.646C1671.53,309.31 1671.93,309.141 1672.39,309.141C1673,309.141 1673.46,309.35 1673.79,309.768C1674.11,310.186 1674.27,310.685 1674.27,311.265Z" style="fill:none;"/>
                <path d="M1699.72,289.438L1699.72,312.449L1696.93,312.449L1696.93,289.438L1688.41,289.438L1688.41,286.932L1708.21,286.932L1708.21,289.438L1699.72,289.438Z" style="fill:none;"/>
                <path d="M1726.35,294.59C1726.35,293.847 1726.21,293.151 1725.93,292.501C1725.65,291.852 1725.25,291.289 1724.72,290.813C1724.18,290.337 1723.51,289.96 1722.71,289.682C1721.91,289.403 1720.99,289.264 1719.95,289.264C1719.34,289.264 1718.72,289.281 1718.08,289.316C1717.44,289.351 1716.89,289.426 1716.43,289.542L1716.43,299.916C1716.85,299.963 1717.35,300.003 1717.93,300.038C1718.51,300.073 1719.04,300.09 1719.53,300.09C1721.92,300.09 1723.65,299.591 1724.73,298.593C1725.81,297.596 1726.35,296.261 1726.35,294.59ZM1727.81,312.449L1721.03,302.388C1720.75,302.411 1720.47,302.429 1720.19,302.44C1719.91,302.452 1719.62,302.458 1719.32,302.458C1718.9,302.458 1718.42,302.452 1717.88,302.44C1717.33,302.429 1716.85,302.411 1716.43,302.388L1716.43,312.449L1713.64,312.449L1713.64,287.175C1714.6,287.059 1715.55,286.961 1716.5,286.879C1717.45,286.798 1718.46,286.757 1719.53,286.757C1721.18,286.757 1722.62,286.949 1723.85,287.332C1725.08,287.715 1726.1,288.249 1726.91,288.933C1727.72,289.618 1728.33,290.43 1728.74,291.37C1729.14,292.31 1729.35,293.325 1729.35,294.416C1729.35,296.203 1728.87,297.735 1727.92,299.011C1726.97,300.288 1725.59,301.216 1723.78,301.796L1731.19,312.449L1727.81,312.449Z" style="fill:none;"/>
                <path d="M1745.05,292.084L1740.35,303.049L1749.75,303.049L1745.05,292.084ZM1753.78,312.449L1750.75,305.382L1739.34,305.382L1736.31,312.449L1733.42,312.449L1744.87,286.479L1745.32,286.479L1756.78,312.449L1753.78,312.449Z" style="fill:none;"/>
                <rect x="1761.65" y="286.932" width="2.785" height="25.517" style="fill:none;"/>
                <path d="M1771.92,312.449L1771.92,286.932L1774.7,286.932L1774.7,309.942L1786.85,309.942L1786.85,312.449L1771.92,312.449Z" style="fill:none;"/>
                <path d="M1811.5,308.55C1810.48,307.621 1809.55,306.716 1808.7,305.834C1807.85,304.952 1807.1,304.094 1806.45,303.258C1805.5,303.63 1804.72,304.158 1804.12,304.842C1803.52,305.527 1803.22,306.31 1803.22,307.192C1803.22,308.213 1803.56,309.02 1804.26,309.611C1804.96,310.203 1805.86,310.499 1806.98,310.499C1807.79,310.499 1808.57,310.325 1809.31,309.977C1810.05,309.629 1810.78,309.153 1811.5,308.55ZM1811.57,296.783C1811.57,296.087 1811.33,295.484 1810.86,294.973C1810.38,294.462 1809.8,294.207 1809.1,294.207C1808.75,294.207 1808.41,294.288 1808.09,294.451C1807.77,294.613 1807.48,294.834 1807.24,295.112C1806.99,295.391 1806.8,295.716 1806.64,296.087C1806.49,296.458 1806.42,296.864 1806.42,297.305C1806.42,298.257 1806.85,299.394 1807.71,300.717C1809.14,300.114 1810.15,299.47 1810.72,298.785C1811.29,298.1 1811.57,297.433 1811.57,296.783ZM1818.53,304.024C1817.93,304.79 1817.34,305.533 1816.76,306.252C1816.18,306.972 1815.59,307.656 1814.98,308.306C1815.52,308.77 1816.07,309.24 1816.64,309.716C1817.2,310.192 1817.79,310.673 1818.39,311.161L1816.79,313.006C1816.17,312.518 1815.56,312.031 1814.97,311.543C1814.37,311.056 1813.79,310.569 1813.21,310.081C1812.26,310.894 1811.26,311.549 1810.23,312.048C1809.2,312.547 1808.07,312.797 1806.84,312.797C1805.95,312.797 1805.13,312.675 1804.37,312.431C1803.6,312.187 1802.93,311.828 1802.36,311.352C1801.79,310.876 1801.35,310.29 1801.02,309.594C1800.7,308.898 1800.54,308.085 1800.54,307.157C1800.54,305.858 1800.97,304.744 1801.82,303.815C1802.68,302.887 1803.81,302.098 1805.2,301.448C1804.76,300.729 1804.42,300.032 1804.19,299.359C1803.96,298.686 1803.84,298.048 1803.84,297.445C1803.84,296.679 1804,295.965 1804.31,295.304C1804.63,294.642 1805.03,294.068 1805.53,293.581C1806.03,293.093 1806.59,292.716 1807.22,292.449C1807.85,292.182 1808.47,292.049 1809.1,292.049C1809.91,292.049 1810.62,292.182 1811.22,292.449C1811.83,292.716 1812.33,293.064 1812.74,293.494C1813.14,293.923 1813.45,294.404 1813.66,294.938C1813.87,295.472 1813.97,295.994 1813.97,296.505C1813.97,297.015 1813.9,297.538 1813.75,298.071C1813.6,298.605 1813.33,299.133 1812.95,299.655C1812.56,300.177 1812.05,300.676 1811.41,301.152C1810.78,301.628 1809.97,302.063 1809,302.458C1810.11,303.827 1811.54,305.277 1813.28,306.809C1813.88,306.182 1814.46,305.515 1815.02,304.807C1815.57,304.1 1816.12,303.374 1816.65,302.632L1818.53,304.024Z" style="fill:none;"/>
                <path d="M1852.96,303.293C1852.96,304.778 1852.73,306.113 1852.27,307.296C1851.8,308.48 1851.14,309.484 1850.28,310.308C1849.42,311.132 1848.41,311.764 1847.24,312.205C1846.06,312.646 1844.76,312.866 1843.32,312.866C1841.86,312.866 1840.53,312.657 1839.35,312.24C1838.17,311.822 1837.16,311.201 1836.34,310.377C1835.52,309.553 1834.88,308.55 1834.42,307.366C1833.97,306.182 1833.75,304.825 1833.75,303.293L1833.75,286.932L1836.53,286.932L1836.53,303.084C1836.53,304.361 1836.7,305.457 1837.04,306.374C1837.37,307.291 1837.84,308.045 1838.43,308.637C1839.02,309.228 1839.73,309.664 1840.57,309.942C1841.4,310.221 1842.32,310.36 1843.32,310.36C1844.32,310.36 1845.23,310.221 1846.07,309.942C1846.9,309.664 1847.63,309.228 1848.25,308.637C1848.86,308.045 1849.34,307.291 1849.67,306.374C1850.01,305.457 1850.18,304.361 1850.18,303.084L1850.18,286.932L1852.96,286.932L1852.96,303.293Z" style="fill:none;"/>
                <path d="M1859.96,312.449L1859.96,286.932L1862.74,286.932L1862.74,309.942L1874.89,309.942L1874.89,312.449L1859.96,312.449Z" style="fill:none;"/>
                <path d="M1885.62,289.438L1885.62,312.449L1882.83,312.449L1882.83,289.438L1874.3,289.438L1874.3,286.932L1894.11,286.932L1894.11,289.438L1885.62,289.438Z" style="fill:none;"/>
                <path d="M1912.25,294.59C1912.25,293.847 1912.11,293.151 1911.83,292.501C1911.55,291.852 1911.14,291.289 1910.61,290.813C1910.08,290.337 1909.41,289.96 1908.61,289.682C1907.81,289.403 1906.88,289.264 1905.84,289.264C1905.24,289.264 1904.62,289.281 1903.98,289.316C1903.34,289.351 1902.79,289.426 1902.33,289.542L1902.33,299.916C1902.74,299.963 1903.24,300.003 1903.82,300.038C1904.4,300.073 1904.94,300.09 1905.42,300.09C1907.81,300.09 1909.55,299.591 1910.63,298.593C1911.71,297.596 1912.25,296.261 1912.25,294.59ZM1913.71,312.449L1906.92,302.388C1906.64,302.411 1906.36,302.429 1906.09,302.44C1905.81,302.452 1905.52,302.458 1905.22,302.458C1904.8,302.458 1904.32,302.452 1903.77,302.44C1903.22,302.429 1902.74,302.411 1902.33,302.388L1902.33,312.449L1899.54,312.449L1899.54,287.175C1900.49,287.059 1901.44,286.961 1902.39,286.879C1903.35,286.798 1904.36,286.757 1905.42,286.757C1907.07,286.757 1908.51,286.949 1909.74,287.332C1910.97,287.715 1911.99,288.249 1912.8,288.933C1913.62,289.618 1914.23,290.43 1914.63,291.37C1915.04,292.31 1915.24,293.325 1915.24,294.416C1915.24,296.203 1914.77,297.735 1913.81,299.011C1912.86,300.288 1911.48,301.216 1909.67,301.796L1917.09,312.449L1913.71,312.449Z" style="fill:none;"/>
                <path d="M1930.94,292.084L1926.24,303.049L1935.64,303.049L1930.94,292.084ZM1939.68,312.449L1936.65,305.382L1925.23,305.382L1922.2,312.449L1919.31,312.449L1930.77,286.479L1931.22,286.479L1942.67,312.449L1939.68,312.449Z" style="fill:none;"/>
                <path d="M1969.69,294.59C1969.69,293.847 1969.55,293.151 1969.27,292.501C1968.99,291.852 1968.58,291.289 1968.05,290.813C1967.52,290.337 1966.85,289.96 1966.05,289.682C1965.25,289.403 1964.33,289.264 1963.28,289.264C1962.68,289.264 1962.06,289.281 1961.42,289.316C1960.78,289.351 1960.23,289.426 1959.77,289.542L1959.77,299.916C1960.18,299.963 1960.68,300.003 1961.26,300.038C1961.84,300.073 1962.38,300.09 1962.86,300.09C1965.25,300.09 1966.99,299.591 1968.07,298.593C1969.15,297.596 1969.69,296.261 1969.69,294.59ZM1971.15,312.449L1964.36,302.388C1964.08,302.411 1963.8,302.429 1963.52,302.44C1963.25,302.452 1962.96,302.458 1962.65,302.458C1962.24,302.458 1961.76,302.452 1961.21,302.44C1960.66,302.429 1960.18,302.411 1959.77,302.388L1959.77,312.449L1956.98,312.449L1956.98,287.175C1957.93,287.059 1958.88,286.961 1959.83,286.879C1960.79,286.798 1961.8,286.757 1962.86,286.757C1964.51,286.757 1965.95,286.949 1967.18,287.332C1968.41,287.715 1969.43,288.249 1970.24,288.933C1971.06,289.618 1971.66,290.43 1972.07,291.37C1972.48,292.31 1972.68,293.325 1972.68,294.416C1972.68,296.203 1972.2,297.735 1971.25,299.011C1970.3,300.288 1968.92,301.216 1967.11,301.796L1974.53,312.449L1971.15,312.449Z" style="fill:none;"/>
                <path d="M1998.27,303.293C1998.27,304.778 1998.03,306.113 1997.57,307.296C1997.11,308.48 1996.44,309.484 1995.59,310.308C1994.73,311.132 1993.71,311.764 1992.54,312.205C1991.37,312.646 1990.06,312.866 1988.62,312.866C1987.16,312.866 1985.84,312.657 1984.65,312.24C1983.47,311.822 1982.47,311.201 1981.64,310.377C1980.82,309.553 1980.18,308.55 1979.73,307.366C1979.28,306.182 1979.05,304.825 1979.05,303.293L1979.05,286.932L1981.84,286.932L1981.84,303.084C1981.84,304.361 1982,305.457 1982.34,306.374C1982.68,307.291 1983.14,308.045 1983.73,308.637C1984.32,309.228 1985.04,309.664 1985.87,309.942C1986.71,310.221 1987.63,310.36 1988.62,310.36C1989.62,310.36 1990.54,310.221 1991.37,309.942C1992.21,309.664 1992.93,309.228 1993.55,308.637C1994.16,308.045 1994.64,307.291 1994.98,306.374C1995.31,305.457 1995.48,304.361 1995.48,303.084L1995.48,286.932L1998.27,286.932L1998.27,303.293Z" style="fill:none;"/>
                <path d="M2024.62,312.936L2008.05,293.093L2008.05,312.449L2005.26,312.449L2005.26,286.583L2005.82,286.444L2022.18,305.974L2022.18,286.932L2024.97,286.932L2024.97,312.832L2024.62,312.936Z" style="fill:none;"/>
                <path d="M2051.63,312.936L2035.06,293.093L2035.06,312.449L2032.28,312.449L2032.28,286.583L2032.84,286.444L2049.2,305.974L2049.2,286.932L2051.98,286.932L2051.98,312.832L2051.63,312.936Z" style="fill:none;"/>
                <rect x="2059.47" y="286.932" width="2.785" height="25.517" style="fill:none;"/>
                <path d="M2089.09,312.936L2072.52,293.093L2072.52,312.449L2069.74,312.449L2069.74,286.583L2070.29,286.444L2086.65,305.974L2086.65,286.932L2089.44,286.932L2089.44,312.832L2089.09,312.936Z" style="fill:none;"/>
                <path d="M2118.86,299.812L2118.86,309.873C2117.55,310.847 2116.15,311.59 2114.64,312.1C2113.13,312.611 2111.43,312.866 2109.53,312.866C2107.76,312.866 2106.06,312.553 2104.41,311.926C2102.76,311.3 2101.3,310.412 2100.04,309.263C2098.77,308.115 2097.76,306.734 2097.01,305.121C2096.26,303.508 2095.88,301.703 2095.88,299.707C2095.88,297.712 2096.27,295.901 2097.05,294.277C2097.82,292.652 2098.84,291.266 2100.09,290.117C2101.34,288.968 2102.77,288.08 2104.36,287.454C2105.95,286.827 2107.56,286.514 2109.21,286.514C2110.26,286.514 2111.22,286.589 2112.1,286.74C2112.98,286.891 2113.8,287.1 2114.55,287.367C2115.31,287.634 2116.03,287.958 2116.71,288.341C2117.4,288.724 2118.08,289.148 2118.75,289.612L2117.29,291.805C2116.11,290.946 2114.82,290.268 2113.42,289.769C2112.03,289.27 2110.64,289.02 2109.25,289.02C2107.62,289.02 2106.17,289.31 2104.88,289.891C2103.59,290.471 2102.51,291.254 2101.62,292.24C2100.74,293.227 2100.07,294.364 2099.6,295.652C2099.14,296.94 2098.91,298.292 2098.91,299.707C2098.91,301.216 2099.19,302.62 2099.74,303.92C2100.3,305.219 2101.05,306.351 2102.01,307.314C2102.96,308.277 2104.08,309.031 2105.38,309.577C2106.68,310.122 2108.07,310.395 2109.56,310.395C2110.81,310.395 2111.96,310.255 2112.99,309.977C2114.02,309.698 2115.05,309.257 2116.07,308.654L2116.07,302.423L2109.32,302.423L2109.32,299.812L2118.86,299.812Z" style="fill:none;"/>
                <path d="M2144.44,289.438L2144.44,312.449L2141.66,312.449L2141.66,289.438L2133.13,289.438L2133.13,286.932L2152.94,286.932L2152.94,289.438L2144.44,289.438Z" style="fill:none;"/>
                <path d="M2158.33,312.449L2158.33,286.932L2173.27,286.932L2173.27,289.438L2161.12,289.438L2161.12,298.245L2172.05,298.245L2172.05,300.752L2161.12,300.752L2161.12,309.942L2173.27,309.942L2173.27,312.449L2158.33,312.449Z" style="fill:none;"/>
                <path d="M2189.07,292.084L2184.37,303.049L2193.77,303.049L2189.07,292.084ZM2197.81,312.449L2194.78,305.382L2183.36,305.382L2180.33,312.449L2177.44,312.449L2188.9,286.479L2189.35,286.479L2200.8,312.449L2197.81,312.449Z" style="fill:none;"/>
                <path d="M2227.22,312.449L2226.84,294.416L2217.79,309.838L2217.41,309.838L2208.29,294.381L2207.97,312.449L2205.15,312.449L2206.13,286.514L2206.65,286.444L2217.72,305.66L2228.51,286.444L2229.07,286.514L2230.04,312.449L2227.22,312.449Z" style="fill:none;"/>
                <path d="M1623.48,305.556C1623.48,306.6 1623.29,307.563 1622.89,308.445C1622.5,309.327 1621.95,310.099 1621.25,310.76C1620.56,311.422 1619.73,311.938 1618.78,312.309C1617.83,312.681 1616.8,312.866 1615.68,312.866C1614.22,312.866 1612.9,312.657 1611.73,312.24C1610.56,311.822 1609.42,311.242 1608.3,310.499L1609.66,308.062C1610.64,308.759 1611.66,309.31 1612.73,309.716C1613.79,310.122 1614.83,310.325 1615.82,310.325C1616.64,310.325 1617.34,310.203 1617.95,309.96C1618.55,309.716 1619.05,309.385 1619.44,308.967C1619.84,308.55 1620.13,308.074 1620.33,307.54C1620.53,307.006 1620.63,306.449 1620.63,305.869C1620.63,305.312 1620.56,304.802 1620.42,304.337C1620.28,303.873 1620.03,303.432 1619.67,303.015C1619.31,302.597 1618.8,302.185 1618.14,301.779C1617.48,301.373 1616.62,300.937 1615.58,300.473C1614.47,299.986 1613.53,299.493 1612.76,298.994C1611.99,298.495 1611.37,297.961 1610.9,297.392C1610.42,296.824 1610.07,296.22 1609.85,295.582C1609.63,294.944 1609.52,294.242 1609.52,293.476C1609.52,292.548 1609.71,291.666 1610.08,290.83C1610.45,289.995 1610.98,289.258 1611.66,288.62C1612.35,287.982 1613.17,287.471 1614.13,287.088C1615.1,286.705 1616.16,286.514 1617.32,286.514C1618.41,286.514 1619.44,286.676 1620.42,287.001C1621.39,287.326 1622.25,287.744 1623,288.254L1621.74,290.622C1621.12,290.157 1620.4,289.78 1619.6,289.49C1618.8,289.2 1617.98,289.055 1617.15,289.055C1616.36,289.055 1615.65,289.171 1615.04,289.403C1614.42,289.635 1613.92,289.943 1613.53,290.326C1613.13,290.709 1612.83,291.161 1612.62,291.683C1612.41,292.205 1612.31,292.757 1612.31,293.337C1612.31,294.219 1612.64,295.031 1613.3,295.774C1613.96,296.516 1615.08,297.247 1616.66,297.967C1617.98,298.57 1619.08,299.145 1619.97,299.69C1620.85,300.235 1621.55,300.798 1622.07,301.378C1622.6,301.959 1622.96,302.585 1623.17,303.258C1623.38,303.931 1623.48,304.697 1623.48,305.556Z" style="fill:rgb(102,102,102);fill-rule:nonzero;"/>
                <path d="M1643.74,312.449L1632.22,299.916L1632.22,312.449L1629.43,312.449L1629.43,286.932L1632.22,286.932L1632.22,298.802L1643.33,286.932L1646.84,286.932L1635.01,299.325L1647.4,312.449L1643.74,312.449Z" style="fill:rgb(102,102,102);fill-rule:nonzero;"/>
                <path d="M1661.67,301.135L1661.67,312.449L1658.89,312.449L1658.89,301.1L1649.94,286.932L1653.07,286.932L1660.38,298.768L1667.59,286.932L1670.65,286.932L1661.67,301.135Z" style="fill:rgb(102,102,102);fill-rule:nonzero;"/>
                <path d="M1674.27,311.265C1674.27,311.683 1674.2,312.124 1674.05,312.588C1673.9,313.052 1673.67,313.522 1673.38,313.998C1673.1,314.473 1672.72,314.938 1672.27,315.39C1671.82,315.843 1671.28,316.255 1670.65,316.626L1670.27,316.069C1670.92,315.512 1671.42,314.926 1671.77,314.311C1672.11,313.696 1672.36,313.133 1672.5,312.623C1671.94,312.576 1671.5,312.385 1671.17,312.048C1670.85,311.712 1670.69,311.311 1670.69,310.847C1670.69,310.383 1670.86,309.983 1671.19,309.646C1671.53,309.31 1671.93,309.141 1672.39,309.141C1673,309.141 1673.46,309.35 1673.79,309.768C1674.11,310.186 1674.27,310.685 1674.27,311.265Z" style="fill:rgb(102,102,102);fill-rule:nonzero;"/>
                <path d="M1699.72,289.438L1699.72,312.449L1696.93,312.449L1696.93,289.438L1688.41,289.438L1688.41,286.932L1708.21,286.932L1708.21,289.438L1699.72,289.438Z" style="fill:rgb(102,102,102);fill-rule:nonzero;"/>
                <path d="M1726.35,294.59C1726.35,293.847 1726.21,293.151 1725.93,292.501C1725.65,291.852 1725.25,291.289 1724.72,290.813C1724.18,290.337 1723.51,289.96 1722.71,289.682C1721.91,289.403 1720.99,289.264 1719.95,289.264C1719.34,289.264 1718.72,289.281 1718.08,289.316C1717.44,289.351 1716.89,289.426 1716.43,289.542L1716.43,299.916C1716.85,299.963 1717.35,300.003 1717.93,300.038C1718.51,300.073 1719.04,300.09 1719.53,300.09C1721.92,300.09 1723.65,299.591 1724.73,298.593C1725.81,297.596 1726.35,296.261 1726.35,294.59ZM1727.81,312.449L1721.03,302.388C1720.75,302.411 1720.47,302.429 1720.19,302.44C1719.91,302.452 1719.62,302.458 1719.32,302.458C1718.9,302.458 1718.42,302.452 1717.88,302.44C1717.33,302.429 1716.85,302.411 1716.43,302.388L1716.43,312.449L1713.64,312.449L1713.64,287.175C1714.6,287.059 1715.55,286.961 1716.5,286.879C1717.45,286.798 1718.46,286.757 1719.53,286.757C1721.18,286.757 1722.62,286.949 1723.85,287.332C1725.08,287.715 1726.1,288.249 1726.91,288.933C1727.72,289.618 1728.33,290.43 1728.74,291.37C1729.14,292.31 1729.35,293.325 1729.35,294.416C1729.35,296.203 1728.87,297.735 1727.92,299.011C1726.97,300.288 1725.59,301.216 1723.78,301.796L1731.19,312.449L1727.81,312.449Z" style="fill:rgb(102,102,102);fill-rule:nonzero;"/>
                <path d="M1745.05,292.084L1740.35,303.049L1749.75,303.049L1745.05,292.084ZM1753.78,312.449L1750.75,305.382L1739.34,305.382L1736.31,312.449L1733.42,312.449L1744.87,286.479L1745.32,286.479L1756.78,312.449L1753.78,312.449Z" style="fill:rgb(102,102,102);fill-rule:nonzero;"/>
                <rect x="1761.65" y="286.932" width="2.785" height="25.517" style="fill:rgb(102,102,102);fill-rule:nonzero;"/>
                <path d="M1771.92,312.449L1771.92,286.932L1774.7,286.932L1774.7,309.942L1786.85,309.942L1786.85,312.449L1771.92,312.449Z" style="fill:rgb(102,102,102);fill-rule:nonzero;"/>
                <path d="M1811.5,308.55C1810.48,307.621 1809.55,306.716 1808.7,305.834C1807.85,304.952 1807.1,304.094 1806.45,303.258C1805.5,303.63 1804.72,304.158 1804.12,304.842C1803.52,305.527 1803.22,306.31 1803.22,307.192C1803.22,308.213 1803.56,309.02 1804.26,309.611C1804.96,310.203 1805.86,310.499 1806.98,310.499C1807.79,310.499 1808.57,310.325 1809.31,309.977C1810.05,309.629 1810.78,309.153 1811.5,308.55ZM1811.57,296.783C1811.57,296.087 1811.33,295.484 1810.86,294.973C1810.38,294.462 1809.8,294.207 1809.1,294.207C1808.75,294.207 1808.41,294.288 1808.09,294.451C1807.77,294.613 1807.48,294.834 1807.24,295.112C1806.99,295.391 1806.8,295.716 1806.64,296.087C1806.49,296.458 1806.42,296.864 1806.42,297.305C1806.42,298.257 1806.85,299.394 1807.71,300.717C1809.14,300.114 1810.15,299.47 1810.72,298.785C1811.29,298.1 1811.57,297.433 1811.57,296.783ZM1818.53,304.024C1817.93,304.79 1817.34,305.533 1816.76,306.252C1816.18,306.972 1815.59,307.656 1814.98,308.306C1815.52,308.77 1816.07,309.24 1816.64,309.716C1817.2,310.192 1817.79,310.673 1818.39,311.161L1816.79,313.006C1816.17,312.518 1815.56,312.031 1814.97,311.543C1814.37,311.056 1813.79,310.569 1813.21,310.081C1812.26,310.894 1811.26,311.549 1810.23,312.048C1809.2,312.547 1808.07,312.797 1806.84,312.797C1805.95,312.797 1805.13,312.675 1804.37,312.431C1803.6,312.187 1802.93,311.828 1802.36,311.352C1801.79,310.876 1801.35,310.29 1801.02,309.594C1800.7,308.898 1800.54,308.085 1800.54,307.157C1800.54,305.858 1800.97,304.744 1801.82,303.815C1802.68,302.887 1803.81,302.098 1805.2,301.448C1804.76,300.729 1804.42,300.032 1804.19,299.359C1803.96,298.686 1803.84,298.048 1803.84,297.445C1803.84,296.679 1804,295.965 1804.31,295.304C1804.63,294.642 1805.03,294.068 1805.53,293.581C1806.03,293.093 1806.59,292.716 1807.22,292.449C1807.85,292.182 1808.47,292.049 1809.1,292.049C1809.91,292.049 1810.62,292.182 1811.22,292.449C1811.83,292.716 1812.33,293.064 1812.74,293.494C1813.14,293.923 1813.45,294.404 1813.66,294.938C1813.87,295.472 1813.97,295.994 1813.97,296.505C1813.97,297.015 1813.9,297.538 1813.75,298.071C1813.6,298.605 1813.33,299.133 1812.95,299.655C1812.56,300.177 1812.05,300.676 1811.41,301.152C1810.78,301.628 1809.97,302.063 1809,302.458C1810.11,303.827 1811.54,305.277 1813.28,306.809C1813.88,306.182 1814.46,305.515 1815.02,304.807C1815.57,304.1 1816.12,303.374 1816.65,302.632L1818.53,304.024Z" style="fill:rgb(102,102,102);fill-rule:nonzero;"/>
                <path d="M1852.96,303.293C1852.96,304.778 1852.73,306.113 1852.27,307.296C1851.8,308.48 1851.14,309.484 1850.28,310.308C1849.42,311.132 1848.41,311.764 1847.24,312.205C1846.06,312.646 1844.76,312.866 1843.32,312.866C1841.86,312.866 1840.53,312.657 1839.35,312.24C1838.17,311.822 1837.16,311.201 1836.34,310.377C1835.52,309.553 1834.88,308.55 1834.42,307.366C1833.97,306.182 1833.75,304.825 1833.75,303.293L1833.75,286.932L1836.53,286.932L1836.53,303.084C1836.53,304.361 1836.7,305.457 1837.04,306.374C1837.37,307.291 1837.84,308.045 1838.43,308.637C1839.02,309.228 1839.73,309.664 1840.57,309.942C1841.4,310.221 1842.32,310.36 1843.32,310.36C1844.32,310.36 1845.23,310.221 1846.07,309.942C1846.9,309.664 1847.63,309.228 1848.25,308.637C1848.86,308.045 1849.34,307.291 1849.67,306.374C1850.01,305.457 1850.18,304.361 1850.18,303.084L1850.18,286.932L1852.96,286.932L1852.96,303.293Z" style="fill:rgb(102,102,102);fill-rule:nonzero;"/>
                <path d="M1859.96,312.449L1859.96,286.932L1862.74,286.932L1862.74,309.942L1874.89,309.942L1874.89,312.449L1859.96,312.449Z" style="fill:rgb(102,102,102);fill-rule:nonzero;"/>
                <path d="M1885.62,289.438L1885.62,312.449L1882.83,312.449L1882.83,289.438L1874.3,289.438L1874.3,286.932L1894.11,286.932L1894.11,289.438L1885.62,289.438Z" style="fill:rgb(102,102,102);fill-rule:nonzero;"/>
                <path d="M1912.25,294.59C1912.25,293.847 1912.11,293.151 1911.83,292.501C1911.55,291.852 1911.14,291.289 1910.61,290.813C1910.08,290.337 1909.41,289.96 1908.61,289.682C1907.81,289.403 1906.88,289.264 1905.84,289.264C1905.24,289.264 1904.62,289.281 1903.98,289.316C1903.34,289.351 1902.79,289.426 1902.33,289.542L1902.33,299.916C1902.74,299.963 1903.24,300.003 1903.82,300.038C1904.4,300.073 1904.94,300.09 1905.42,300.09C1907.81,300.09 1909.55,299.591 1910.63,298.593C1911.71,297.596 1912.25,296.261 1912.25,294.59ZM1913.71,312.449L1906.92,302.388C1906.64,302.411 1906.36,302.429 1906.09,302.44C1905.81,302.452 1905.52,302.458 1905.22,302.458C1904.8,302.458 1904.32,302.452 1903.77,302.44C1903.22,302.429 1902.74,302.411 1902.33,302.388L1902.33,312.449L1899.54,312.449L1899.54,287.175C1900.49,287.059 1901.44,286.961 1902.39,286.879C1903.35,286.798 1904.36,286.757 1905.42,286.757C1907.07,286.757 1908.51,286.949 1909.74,287.332C1910.97,287.715 1911.99,288.249 1912.8,288.933C1913.62,289.618 1914.23,290.43 1914.63,291.37C1915.04,292.31 1915.24,293.325 1915.24,294.416C1915.24,296.203 1914.77,297.735 1913.81,299.011C1912.86,300.288 1911.48,301.216 1909.67,301.796L1917.09,312.449L1913.71,312.449Z" style="fill:rgb(102,102,102);fill-rule:nonzero;"/>
                <path d="M1930.94,292.084L1926.24,303.049L1935.64,303.049L1930.94,292.084ZM1939.68,312.449L1936.65,305.382L1925.23,305.382L1922.2,312.449L1919.31,312.449L1930.77,286.479L1931.22,286.479L1942.67,312.449L1939.68,312.449Z" style="fill:rgb(102,102,102);fill-rule:nonzero;"/>
                <path d="M1969.69,294.59C1969.69,293.847 1969.55,293.151 1969.27,292.501C1968.99,291.852 1968.58,291.289 1968.05,290.813C1967.52,290.337 1966.85,289.96 1966.05,289.682C1965.25,289.403 1964.33,289.264 1963.28,289.264C1962.68,289.264 1962.06,289.281 1961.42,289.316C1960.78,289.351 1960.23,289.426 1959.77,289.542L1959.77,299.916C1960.18,299.963 1960.68,300.003 1961.26,300.038C1961.84,300.073 1962.38,300.09 1962.86,300.09C1965.25,300.09 1966.99,299.591 1968.07,298.593C1969.15,297.596 1969.69,296.261 1969.69,294.59ZM1971.15,312.449L1964.36,302.388C1964.08,302.411 1963.8,302.429 1963.52,302.44C1963.25,302.452 1962.96,302.458 1962.65,302.458C1962.24,302.458 1961.76,302.452 1961.21,302.44C1960.66,302.429 1960.18,302.411 1959.77,302.388L1959.77,312.449L1956.98,312.449L1956.98,287.175C1957.93,287.059 1958.88,286.961 1959.83,286.879C1960.79,286.798 1961.8,286.757 1962.86,286.757C1964.51,286.757 1965.95,286.949 1967.18,287.332C1968.41,287.715 1969.43,288.249 1970.24,288.933C1971.06,289.618 1971.66,290.43 1972.07,291.37C1972.48,292.31 1972.68,293.325 1972.68,294.416C1972.68,296.203 1972.2,297.735 1971.25,299.011C1970.3,300.288 1968.92,301.216 1967.11,301.796L1974.53,312.449L1971.15,312.449Z" style="fill:rgb(102,102,102);fill-rule:nonzero;"/>
                <path d="M1998.27,303.293C1998.27,304.778 1998.03,306.113 1997.57,307.296C1997.11,308.48 1996.44,309.484 1995.59,310.308C1994.73,311.132 1993.71,311.764 1992.54,312.205C1991.37,312.646 1990.06,312.866 1988.62,312.866C1987.16,312.866 1985.84,312.657 1984.65,312.24C1983.47,311.822 1982.47,311.201 1981.64,310.377C1980.82,309.553 1980.18,308.55 1979.73,307.366C1979.28,306.182 1979.05,304.825 1979.05,303.293L1979.05,286.932L1981.84,286.932L1981.84,303.084C1981.84,304.361 1982,305.457 1982.34,306.374C1982.68,307.291 1983.14,308.045 1983.73,308.637C1984.32,309.228 1985.04,309.664 1985.87,309.942C1986.71,310.221 1987.63,310.36 1988.62,310.36C1989.62,310.36 1990.54,310.221 1991.37,309.942C1992.21,309.664 1992.93,309.228 1993.55,308.637C1994.16,308.045 1994.64,307.291 1994.98,306.374C1995.31,305.457 1995.48,304.361 1995.48,303.084L1995.48,286.932L1998.27,286.932L1998.27,303.293Z" style="fill:rgb(102,102,102);fill-rule:nonzero;"/>
                <path d="M2024.62,312.936L2008.05,293.093L2008.05,312.449L2005.26,312.449L2005.26,286.583L2005.82,286.444L2022.18,305.974L2022.18,286.932L2024.97,286.932L2024.97,312.832L2024.62,312.936Z" style="fill:rgb(102,102,102);fill-rule:nonzero;"/>
                <path d="M2051.63,312.936L2035.06,293.093L2035.06,312.449L2032.28,312.449L2032.28,286.583L2032.84,286.444L2049.2,305.974L2049.2,286.932L2051.98,286.932L2051.98,312.832L2051.63,312.936Z" style="fill:rgb(102,102,102);fill-rule:nonzero;"/>
                <rect x="2059.47" y="286.932" width="2.785" height="25.517" style="fill:rgb(102,102,102);fill-rule:nonzero;"/>
                <path d="M2089.09,312.936L2072.52,293.093L2072.52,312.449L2069.74,312.449L2069.74,286.583L2070.29,286.444L2086.65,305.974L2086.65,286.932L2089.44,286.932L2089.44,312.832L2089.09,312.936Z" style="fill:rgb(102,102,102);fill-rule:nonzero;"/>
                <path d="M2118.86,299.812L2118.86,309.873C2117.55,310.847 2116.15,311.59 2114.64,312.1C2113.13,312.611 2111.43,312.866 2109.53,312.866C2107.76,312.866 2106.06,312.553 2104.41,311.926C2102.76,311.3 2101.3,310.412 2100.04,309.263C2098.77,308.115 2097.76,306.734 2097.01,305.121C2096.26,303.508 2095.88,301.703 2095.88,299.707C2095.88,297.712 2096.27,295.901 2097.05,294.277C2097.82,292.652 2098.84,291.266 2100.09,290.117C2101.34,288.968 2102.77,288.08 2104.36,287.454C2105.95,286.827 2107.56,286.514 2109.21,286.514C2110.26,286.514 2111.22,286.589 2112.1,286.74C2112.98,286.891 2113.8,287.1 2114.55,287.367C2115.31,287.634 2116.03,287.958 2116.71,288.341C2117.4,288.724 2118.08,289.148 2118.75,289.612L2117.29,291.805C2116.11,290.946 2114.82,290.268 2113.42,289.769C2112.03,289.27 2110.64,289.02 2109.25,289.02C2107.62,289.02 2106.17,289.31 2104.88,289.891C2103.59,290.471 2102.51,291.254 2101.62,292.24C2100.74,293.227 2100.07,294.364 2099.6,295.652C2099.14,296.94 2098.91,298.292 2098.91,299.707C2098.91,301.216 2099.19,302.62 2099.74,303.92C2100.3,305.219 2101.05,306.351 2102.01,307.314C2102.96,308.277 2104.08,309.031 2105.38,309.577C2106.68,310.122 2108.07,310.395 2109.56,310.395C2110.81,310.395 2111.96,310.255 2112.99,309.977C2114.02,309.698 2115.05,309.257 2116.07,308.654L2116.07,302.423L2109.32,302.423L2109.32,299.812L2118.86,299.812Z" style="fill:rgb(102,102,102);fill-rule:nonzero;"/>
                <path d="M2144.44,289.438L2144.44,312.449L2141.66,312.449L2141.66,289.438L2133.13,289.438L2133.13,286.932L2152.94,286.932L2152.94,289.438L2144.44,289.438Z" style="fill:rgb(102,102,102);fill-rule:nonzero;"/>
                <path d="M2158.33,312.449L2158.33,286.932L2173.27,286.932L2173.27,289.438L2161.12,289.438L2161.12,298.245L2172.05,298.245L2172.05,300.752L2161.12,300.752L2161.12,309.942L2173.27,309.942L2173.27,312.449L2158.33,312.449Z" style="fill:rgb(102,102,102);fill-rule:nonzero;"/>
                <path d="M2189.07,292.084L2184.37,303.049L2193.77,303.049L2189.07,292.084ZM2197.81,312.449L2194.78,305.382L2183.36,305.382L2180.33,312.449L2177.44,312.449L2188.9,286.479L2189.35,286.479L2200.8,312.449L2197.81,312.449Z" style="fill:rgb(102,102,102);fill-rule:nonzero;"/>
                <path d="M2227.22,312.449L2226.84,294.416L2217.79,309.838L2217.41,309.838L2208.29,294.381L2207.97,312.449L2205.15,312.449L2206.13,286.514L2206.65,286.444L2217.72,305.66L2228.51,286.444L2229.07,286.514L2230.04,312.449L2227.22,312.449Z" style="fill:rgb(102,102,102);fill-rule:nonzero;"/>
            </g>
        </g>
    </g>
</svg>
