<svg viewBox="0 0 925 925" xmlns="http://www.w3.org/2000/svg" fill-rule="evenodd" clip-rule="evenodd" stroke-linejoin="round" stroke-miterlimit="1.41"><path d="M759.5 596.23h-594l297-409 297 409zM480.15 246.99l-46.35 15.2-227.42 313.2h512.24L480.15 247z"/><path fill="none" d="M.04 0h925v924.8H.04z"/><path fill="#0ebbff" d="M391.28 358.28l251.93-78.68-14.56 35.9-251.93 78.68z"/><path fill="#1cff95" d="M465.34 424.74l136.27-42.56-14.56 35.9-136.28 42.56z"/><path fill="#02c460" d="M328.88 512.15l251.93-78.68-14.56 35.9-251.93 78.68z"/><path fill="#3effff" d="M370.48 409.57l154.08-48.12-14.57 35.9-154.07 48.12z"/><path d="M229.98 648.96c0-3.13 2.8-5.6 7.6-5.6 4.26 0 8.46 1.67 12.66 4.8l4.4-6.2a25.87 25.87 0 0 0-16.94-5.86c-9.26 0-15.93 5.46-15.93 13.6 0 8.66 5.6 11.6 15.54 14 8.66 2 10.53 3.8 10.53 7.2 0 3.6-3.2 5.93-8.27 5.93-5.8 0-10.26-2.2-14.73-6.07l-4.94 5.87c5.6 5 12.34 7.47 19.47 7.47 9.8 0 16.67-5.2 16.67-14 0-7.8-5.13-11.34-15-13.74-8.94-2.13-11.06-3.73-11.06-7.4zM286.1 656.83l19.4-20.07h-10.06l-22.2 23.47v-23.47h-8.2v46.67h8.2V669.9l7.27-7.47 15.93 21h9.93l-20.26-26.6zM333.84 664.83l18.53-28.07h-9.4l-13.2 20.67-13.06-20.67h-9.67l18.53 28.27v18.4h8.27v-18.6zM398.5 636.76h-20.92v46.67h21.6c10.4 0 17.26-4.47 17.26-12.87 0-6.4-3.8-9.53-9.27-11.4 3.47-1.8 6.67-4.73 6.67-10.46 0-7.34-5.93-11.94-15.34-11.94zm-1.66 19.67h-11.2v-12.4h11.8c5.27 0 8.2 2.2 8.2 6 0 4.33-3.54 6.4-8.8 6.4zm2.4 19.73h-13.6v-12.8h13c6.47 0 9.6 2.34 9.6 6.34 0 4.26-3.4 6.46-9 6.46zM427.7 683.43h32.74v-7.47h-24.53v-39.2h-8.2v46.67zM495.1 636.43h-7.59l-20.54 47h8.4l4.8-11.27h22.07l4.73 11.27h8.67l-20.54-47zm4.14 28.47h-16.07l8-18.67 8.07 18.67zM550.84 644.03l-27.53 33.33v6.07h38.2v-7.27h-27.53l27.53-33.33v-6.07h-37.34v7.27h26.67zM608.37 636.76h-34.6v46.67h34.94v-7.33h-26.74v-12.54h23.4v-7.33h-23.4V644.1h26.4v-7.34zM660.04 683.43l-12.6-17.67c6.53-1.8 11.13-6.46 11.13-14.2 0-9.13-6.6-14.8-17.33-14.8h-20.8v46.67h8.2v-16.27h10.27l11.47 16.27h9.66zm-9.8-31.4c0 4.8-3.73 7.87-9.6 7.87h-12v-15.67h11.93c6.07 0 9.67 2.67 9.67 7.8zM676.9 648.96c0-3.13 2.8-5.6 7.6-5.6 4.27 0 8.47 1.67 12.67 4.8l4.4-6.2a25.87 25.87 0 0 0-16.93-5.86c-9.27 0-15.93 5.46-15.93 13.6 0 8.66 5.6 11.6 15.53 14 8.67 2 10.54 3.8 10.54 7.2 0 3.6-3.2 5.93-8.27 5.93-5.8 0-10.27-2.2-14.74-6.07l-4.93 5.87c5.6 5 12.34 7.47 19.47 7.47 9.8 0 16.66-5.2 16.66-14 0-7.8-5.13-11.34-15-13.74-8.93-2.13-11.06-3.73-11.06-7.4z" fill="none"/><path d="M229.98 648.96c0-3.13 2.8-5.6 7.6-5.6 4.26 0 8.46 1.67 12.66 4.8l4.4-6.2a25.87 25.87 0 0 0-16.94-5.86c-9.26 0-15.93 5.46-15.93 13.6 0 8.66 5.6 11.6 15.54 14 8.66 2 10.53 3.8 10.53 7.2 0 3.6-3.2 5.93-8.27 5.93-5.8 0-10.26-2.2-14.73-6.07l-4.94 5.87c5.6 5 12.34 7.47 19.47 7.47 9.8 0 16.67-5.2 16.67-14 0-7.8-5.13-11.34-15-13.74-8.94-2.13-11.06-3.73-11.06-7.4zM286.1 656.83l19.4-20.07h-10.06l-22.2 23.47v-23.47h-8.2v46.67h8.2V669.9l7.27-7.47 15.93 21h9.93l-20.26-26.6zM333.84 664.83l18.53-28.07h-9.4l-13.2 20.67-13.06-20.67h-9.67l18.53 28.27v18.4h8.27v-18.6zM398.5 636.76h-20.92v46.67h21.6c10.4 0 17.26-4.47 17.26-12.87 0-6.4-3.8-9.53-9.27-11.4 3.47-1.8 6.67-4.73 6.67-10.46 0-7.34-5.93-11.94-15.34-11.94zm-1.66 19.67h-11.2v-12.4h11.8c5.27 0 8.2 2.2 8.2 6 0 4.33-3.54 6.4-8.8 6.4zm2.4 19.73h-13.6v-12.8h13c6.47 0 9.6 2.34 9.6 6.34 0 4.26-3.4 6.46-9 6.46zM427.7 683.43h32.74v-7.47h-24.53v-39.2h-8.2v46.67zM495.1 636.43h-7.59l-20.54 47h8.4l4.8-11.27h22.07l4.73 11.27h8.67l-20.54-47zm4.14 28.47h-16.07l8-18.67 8.07 18.67zM550.84 644.03l-27.53 33.33v6.07h38.2v-7.27h-27.53l27.53-33.33v-6.07h-37.34v7.27h26.67zM608.37 636.76h-34.6v46.67h34.94v-7.33h-26.74v-12.54h23.4v-7.33h-23.4V644.1h26.4v-7.34zM660.04 683.43l-12.6-17.67c6.53-1.8 11.13-6.46 11.13-14.2 0-9.13-6.6-14.8-17.33-14.8h-20.8v46.67h8.2v-16.27h10.27l11.47 16.27h9.66zm-9.8-31.4c0 4.8-3.73 7.87-9.6 7.87h-12v-15.67h11.93c6.07 0 9.67 2.67 9.67 7.8zM676.9 648.96c0-3.13 2.8-5.6 7.6-5.6 4.27 0 8.47 1.67 12.67 4.8l4.4-6.2a25.87 25.87 0 0 0-16.93-5.86c-9.27 0-15.93 5.46-15.93 13.6 0 8.66 5.6 11.6 15.53 14 8.67 2 10.54 3.8 10.54 7.2 0 3.6-3.2 5.93-8.27 5.93-5.8 0-10.27-2.2-14.74-6.07l-4.93 5.87c5.6 5 12.34 7.47 19.47 7.47 9.8 0 16.66-5.2 16.66-14 0-7.8-5.13-11.34-15-13.74-8.93-2.13-11.06-3.73-11.06-7.4z" fill-rule="nonzero"/><g><path d="M246.04 727.63a4.96 4.96 0 0 1-1.6 3.74c-.5.47-1.1.84-1.77 1.1-.69.28-1.43.4-2.23.4-1.05 0-2-.14-2.84-.44-.84-.3-1.66-.72-2.46-1.25l.98-1.75c.7.5 1.43.9 2.2 1.19.76.29 1.5.43 2.22.43.59 0 1.1-.08 1.53-.26a2.97 2.97 0 0 0 1.7-1.74 3.8 3.8 0 0 0 .06-2.3 2.6 2.6 0 0 0-.53-.95c-.25-.3-.62-.6-1.1-.88-.47-.3-1.09-.6-1.83-.94-.8-.35-1.48-.7-2.03-1.06-.55-.36-1-.75-1.33-1.15a4.06 4.06 0 0 1-1-2.82 4.65 4.65 0 0 1 1.54-3.48c.5-.46 1.09-.83 1.78-1.1a7.02 7.02 0 0 1 4.52-.06c.69.23 1.3.53 1.85.9l-.9 1.7a5.9 5.9 0 0 0-3.3-1.13c-.57 0-1.08.08-1.52.25-.45.17-.8.39-1.09.66-.28.28-.5.6-.65.98-.15.37-.22.77-.22 1.18 0 .64.24 1.22.71 1.75a7.32 7.32 0 0 0 2.41 1.58c.95.43 1.74.85 2.38 1.24.63.39 1.13.8 1.5 1.2.39.43.65.88.8 1.36.15.48.22 1.03.22 1.65zM260.59 732.58l-8.27-9v9h-2v-18.33h2v8.53l7.98-8.53h2.52l-8.5 8.9 8.9 9.43h-2.63zM273.47 724.45v8.13h-2v-8.15l-6.43-10.18h2.25l5.25 8.5 5.18-8.5h2.2l-6.45 10.2zM282.51 731.73c0 .3-.05.62-.15.95a5.17 5.17 0 0 1-1.28 2.01c-.32.33-.71.62-1.16.89l-.28-.4a4.83 4.83 0 0 0 1.6-2.48c-.4-.03-.71-.17-.95-.4a1.2 1.2 0 0 1-.35-.87c0-.33.13-.62.36-.86.25-.24.53-.37.86-.37.44 0 .77.15 1.01.45.23.3.34.66.34 1.08zM300.8 716.05v16.53h-2.01v-16.53h-6.12v-1.8h14.22v1.8h-6.1zM319.92 719.75c0-.53-.1-1.03-.3-1.5-.2-.46-.5-.87-.87-1.2a4.28 4.28 0 0 0-1.45-.82 6 6 0 0 0-1.98-.3c-.44 0-.88.01-1.34.04-.46.02-.86.08-1.19.16v7.45a21.61 21.61 0 0 0 2.23.12c1.71 0 2.96-.35 3.73-1.07a3.72 3.72 0 0 0 1.17-2.88zm1.04 12.83l-4.86-7.23a14.16 14.16 0 0 1-1.23.05 47.1 47.1 0 0 1-2.08-.05v7.23h-2v-18.15l2.05-.21c.68-.06 1.41-.1 2.18-.1 1.18 0 2.22.15 3.1.42.88.28 1.62.66 2.2 1.15.58.5 1.02 1.08 1.31 1.75.29.68.44 1.4.44 2.19 0 1.28-.34 2.38-1.03 3.3a5.76 5.76 0 0 1-2.97 2l5.32 7.65h-2.43zM333.35 717.95l-3.38 7.88h6.75l-3.37-7.88zm6.26 14.63l-2.17-5.08h-8.2l-2.17 5.08h-2.08l8.23-18.65h.32l8.23 18.65h-2.16zM345.27 714.25h2v18.33h-2zM352.64 732.58v-18.33h2v16.53h8.72v1.8h-10.72zM381.07 729.78c-.74-.67-1.4-1.32-2.01-1.95a23.25 23.25 0 0 1-1.62-1.85c-.68.27-1.24.65-1.67 1.14-.43.49-.65 1.05-.65 1.68 0 .74.24 1.32.75 1.74.5.43 1.15.64 1.95.64a3.9 3.9 0 0 0 1.67-.38 7.3 7.3 0 0 0 1.58-1.02zm.05-8.45c0-.5-.18-.93-.51-1.3a1.66 1.66 0 0 0-2-.38 2 2 0 0 0-.6.48 2.31 2.31 0 0 0-.59 1.57c0 .69.3 1.5.92 2.45a5.7 5.7 0 0 0 2.17-1.38c.4-.5.6-.97.6-1.44zm5 5.2l-1.28 1.6c-.41.52-.84 1-1.27 1.47a110.5 110.5 0 0 0 2.44 2.05l-1.14 1.33a69.45 69.45 0 0 1-2.58-2.1 10 10 0 0 1-2.14 1.41 5.76 5.76 0 0 1-4.2.28 4.2 4.2 0 0 1-1.45-.78 3.65 3.65 0 0 1-1.3-3.01c0-.93.3-1.73.91-2.4a7.72 7.72 0 0 1 2.43-1.7 7.63 7.63 0 0 1-.72-1.5 4.26 4.26 0 0 1-.25-1.38c0-.55.11-1.06.33-1.53.23-.48.52-.9.88-1.24a3.9 3.9 0 0 1 1.21-.81 3.73 3.73 0 0 1 2.87 0 3.27 3.27 0 0 1 1.82 4.04c-.1.38-.3.76-.57 1.13-.28.38-.65.73-1.1 1.08a7.7 7.7 0 0 1-1.74.93c.8.99 1.83 2.03 3.07 3.13.44-.45.85-.93 1.25-1.44.4-.5.8-1.03 1.17-1.56l1.35 1zM410.84 726c0 1.07-.16 2.03-.5 2.88a6.02 6.02 0 0 1-3.6 3.52c-.85.32-1.79.48-2.82.48-1.05 0-2-.15-2.85-.45a5.68 5.68 0 0 1-3.54-3.5 8.2 8.2 0 0 1-.48-2.93v-11.75h2v11.6c0 .92.11 1.7.36 2.37.23.66.57 1.2 1 1.62.42.43.93.74 1.53.94.6.2 1.26.3 1.98.3s1.37-.1 1.97-.3c.6-.2 1.12-.51 1.57-.94.44-.42.78-.96 1.02-1.62a6.8 6.8 0 0 0 .36-2.37v-11.6h2V726zM415.87 732.58v-18.33h2v16.53h8.72v1.8h-10.72zM434.3 716.05v16.53h-2v-16.53h-6.13v-1.8h14.22v1.8h-6.1zM453.42 719.75c0-.53-.1-1.03-.3-1.5-.2-.46-.5-.87-.88-1.2a4.17 4.17 0 0 0-1.43-.82c-.58-.2-1.25-.3-2-.3-.42 0-.87.01-1.33.04-.46.02-.85.08-1.18.16v7.45a20.57 20.57 0 0 0 2.21.12c1.72 0 2.97-.35 3.75-1.07a3.72 3.72 0 0 0 1.16-2.88zm1.05 12.83l-4.88-7.23a14.59 14.59 0 0 1-1.22.05 48.25 48.25 0 0 1-2.07-.05v7.23h-2v-18.15c.67-.08 1.36-.15 2.04-.21a25.9 25.9 0 0 1 2.17-.1c1.19 0 2.22.15 3.1.42.89.28 1.62.66 2.2 1.15.6.5 1.03 1.08 1.32 1.75.3.68.44 1.4.44 2.19 0 1.28-.34 2.38-1.03 3.3a5.76 5.76 0 0 1-2.97 2l5.33 7.65h-2.43zM466.84 717.95l-3.37 7.88h6.75l-3.38-7.88zm6.28 14.63l-2.18-5.08h-8.2l-2.17 5.08h-2.08l8.23-18.65h.32l8.23 18.65h-2.15zM494.67 719.75c0-.53-.1-1.03-.3-1.5-.2-.46-.5-.87-.88-1.2a4.17 4.17 0 0 0-1.43-.82c-.58-.2-1.24-.3-2-.3-.42 0-.87.01-1.33.04-.46.02-.85.08-1.18.16v7.45a20.57 20.57 0 0 0 2.22.12c1.71 0 2.96-.35 3.74-1.07a3.72 3.72 0 0 0 1.16-2.88zm1.05 12.83l-4.88-7.23a14.16 14.16 0 0 1-1.23.05 48.18 48.18 0 0 1-2.06-.05v7.23h-2v-18.15c.67-.08 1.36-.15 2.04-.21a25.9 25.9 0 0 1 2.18-.1c1.18 0 2.21.15 3.1.42.88.28 1.61.66 2.2 1.15.58.5 1.01 1.08 1.3 1.75.3.68.45 1.4.45 2.19 0 1.28-.35 2.38-1.03 3.3a5.76 5.76 0 0 1-2.97 2l5.33 7.65h-2.43zM515.2 726c0 1.07-.18 2.03-.5 2.88a6 6 0 0 1-3.62 3.52c-.84.32-1.78.48-2.82.48-1.04 0-2-.15-2.85-.45a5.74 5.74 0 0 1-3.53-3.5 8.2 8.2 0 0 1-.49-2.93v-11.75h2v11.6c0 .92.12 1.7.36 2.37.25.66.58 1.2 1 1.62.43.43.94.74 1.54.94.6.2 1.26.3 1.97.3.72 0 1.38-.1 1.98-.3a4.1 4.1 0 0 0 2.6-2.56c.23-.66.35-1.45.35-2.37v-11.6h2V726zM534.12 732.93l-11.9-14.25v13.9h-2V714l.4-.1 11.75 14.03v-13.68h2v18.6l-.25.08zM553.51 732.93l-11.9-14.25v13.9h-2V714l.41-.1 11.75 14.03v-13.68h2v18.6l-.26.08zM559.15 714.25h2v18.33h-2zM580.42 732.93l-11.9-14.25v13.9h-2V714l.4-.1 11.74 14.03v-13.68h2v18.6l-.24.08zM601.8 723.5v7.23c-.94.7-1.95 1.23-3.03 1.6a11.4 11.4 0 0 1-7.35-.13 9.74 9.74 0 0 1-3.14-1.9 9.17 9.17 0 0 1-2.99-6.87c0-1.43.28-2.73.84-3.9a9.6 9.6 0 0 1 5.25-4.9 9.4 9.4 0 0 1 3.49-.68 12.28 12.28 0 0 1 3.83.62c.55.19 1.06.42 1.55.7.5.27.99.58 1.47.9l-1.05 1.58c-.85-.61-1.78-1.1-2.78-1.46-1-.36-2-.54-3-.54-1.17 0-2.2.21-3.13.63a6.94 6.94 0 0 0-3.8 4.14 8.6 8.6 0 0 0-.5 2.9 7.69 7.69 0 0 0 2.24 5.47 7.68 7.68 0 0 0 5.42 2.21c.9 0 1.72-.1 2.46-.3.74-.2 1.48-.51 2.21-.95v-4.47h-4.85v-1.88h6.86zM620.17 716.05v16.53h-2v-16.53h-6.13v-1.8h14.23v1.8h-6.1zM630.14 732.58v-18.33h10.73v1.8h-8.73v6.33H640v1.8h-7.85v6.6h8.73v1.8h-10.73zM652.22 717.95l-3.38 7.88h6.75l-3.37-7.88zm6.27 14.63l-2.17-5.08h-8.2l-2.18 5.08h-2.07l8.22-18.65h.33l8.22 18.65h-2.15zM679.61 732.58l-.27-12.95-6.5 11.07h-.27l-6.55-11.1-.23 12.98h-2.03l.7-18.63.38-.05 7.95 13.8 7.75-13.8.4.05.7 18.63h-2.03z" fill="none"/><path d="M246.04 727.63a4.96 4.96 0 0 1-1.6 3.74c-.5.47-1.1.84-1.77 1.1-.69.28-1.43.4-2.23.4-1.05 0-2-.14-2.84-.44-.84-.3-1.66-.72-2.46-1.25l.98-1.75c.7.5 1.43.9 2.2 1.19.76.29 1.5.43 2.22.43.59 0 1.1-.08 1.53-.26a2.97 2.97 0 0 0 1.7-1.74 3.8 3.8 0 0 0 .06-2.3 2.6 2.6 0 0 0-.53-.95c-.25-.3-.62-.6-1.1-.88-.47-.3-1.09-.6-1.83-.94-.8-.35-1.48-.7-2.03-1.06-.55-.36-1-.75-1.33-1.15a4.06 4.06 0 0 1-1-2.82 4.65 4.65 0 0 1 1.54-3.48c.5-.46 1.09-.83 1.78-1.1a7.02 7.02 0 0 1 4.52-.06c.69.23 1.3.53 1.85.9l-.9 1.7a5.9 5.9 0 0 0-3.3-1.13c-.57 0-1.08.08-1.52.25-.45.17-.8.39-1.09.66-.28.28-.5.6-.65.98-.15.37-.22.77-.22 1.18 0 .64.24 1.22.71 1.75a7.32 7.32 0 0 0 2.41 1.58c.95.43 1.74.85 2.38 1.24.63.39 1.13.8 1.5 1.2.39.43.65.88.8 1.36.15.48.22 1.03.22 1.65zM260.59 732.58l-8.27-9v9h-2v-18.33h2v8.53l7.98-8.53h2.52l-8.5 8.9 8.9 9.43h-2.63zM273.47 724.45v8.13h-2v-8.15l-6.43-10.18h2.25l5.25 8.5 5.18-8.5h2.2l-6.45 10.2zM282.51 731.73c0 .3-.05.62-.15.95a5.17 5.17 0 0 1-1.28 2.01c-.32.33-.71.62-1.16.89l-.28-.4a4.83 4.83 0 0 0 1.6-2.48c-.4-.03-.71-.17-.95-.4a1.2 1.2 0 0 1-.35-.87c0-.33.13-.62.36-.86.25-.24.53-.37.86-.37.44 0 .77.15 1.01.45.23.3.34.66.34 1.08zM300.8 716.05v16.53h-2.01v-16.53h-6.12v-1.8h14.22v1.8h-6.1zM319.92 719.75c0-.53-.1-1.03-.3-1.5-.2-.46-.5-.87-.87-1.2a4.28 4.28 0 0 0-1.45-.82 6 6 0 0 0-1.98-.3c-.44 0-.88.01-1.34.04-.46.02-.86.08-1.19.16v7.45a21.61 21.61 0 0 0 2.23.12c1.71 0 2.96-.35 3.73-1.07a3.72 3.72 0 0 0 1.17-2.88zm1.04 12.83l-4.86-7.23a14.16 14.16 0 0 1-1.23.05 47.1 47.1 0 0 1-2.08-.05v7.23h-2v-18.15l2.05-.21c.68-.06 1.41-.1 2.18-.1 1.18 0 2.22.15 3.1.42.88.28 1.62.66 2.2 1.15.58.5 1.02 1.08 1.31 1.75.29.68.44 1.4.44 2.19 0 1.28-.34 2.38-1.03 3.3a5.76 5.76 0 0 1-2.97 2l5.32 7.65h-2.43zM333.35 717.95l-3.38 7.88h6.75l-3.37-7.88zm6.26 14.63l-2.17-5.08h-8.2l-2.17 5.08h-2.08l8.23-18.65h.32l8.23 18.65h-2.16zM345.27 714.25h2v18.33h-2zM352.64 732.58v-18.33h2v16.53h8.72v1.8h-10.72zM381.07 729.78c-.74-.67-1.4-1.32-2.01-1.95a23.25 23.25 0 0 1-1.62-1.85c-.68.27-1.24.65-1.67 1.14-.43.49-.65 1.05-.65 1.68 0 .74.24 1.32.75 1.74.5.43 1.15.64 1.95.64a3.9 3.9 0 0 0 1.67-.38 7.3 7.3 0 0 0 1.58-1.02zm.05-8.45c0-.5-.18-.93-.51-1.3a1.66 1.66 0 0 0-2-.38 2 2 0 0 0-.6.48 2.31 2.31 0 0 0-.59 1.57c0 .69.3 1.5.92 2.45a5.7 5.7 0 0 0 2.17-1.38c.4-.5.6-.97.6-1.44zm5 5.2l-1.28 1.6c-.41.52-.84 1-1.27 1.47a110.5 110.5 0 0 0 2.44 2.05l-1.14 1.33a69.45 69.45 0 0 1-2.58-2.1 10 10 0 0 1-2.14 1.41 5.76 5.76 0 0 1-4.2.28 4.2 4.2 0 0 1-1.45-.78 3.65 3.65 0 0 1-1.3-3.01c0-.93.3-1.73.91-2.4a7.72 7.72 0 0 1 2.43-1.7 7.63 7.63 0 0 1-.72-1.5 4.26 4.26 0 0 1-.25-1.38c0-.55.11-1.06.33-1.53.23-.48.52-.9.88-1.24a3.9 3.9 0 0 1 1.21-.81 3.73 3.73 0 0 1 2.87 0 3.27 3.27 0 0 1 1.82 4.04c-.1.38-.3.76-.57 1.13-.28.38-.65.73-1.1 1.08a7.7 7.7 0 0 1-1.74.93c.8.99 1.83 2.03 3.07 3.13.44-.45.85-.93 1.25-1.44.4-.5.8-1.03 1.17-1.56l1.35 1zM410.84 726c0 1.07-.16 2.03-.5 2.88a6.02 6.02 0 0 1-3.6 3.52c-.85.32-1.79.48-2.82.48-1.05 0-2-.15-2.85-.45a5.68 5.68 0 0 1-3.54-3.5 8.2 8.2 0 0 1-.48-2.93v-11.75h2v11.6c0 .92.11 1.7.36 2.37.23.66.57 1.2 1 1.62.42.43.93.74 1.53.94.6.2 1.26.3 1.98.3s1.37-.1 1.97-.3c.6-.2 1.12-.51 1.57-.94.44-.42.78-.96 1.02-1.62a6.8 6.8 0 0 0 .36-2.37v-11.6h2V726zM415.87 732.58v-18.33h2v16.53h8.72v1.8h-10.72zM434.3 716.05v16.53h-2v-16.53h-6.13v-1.8h14.22v1.8h-6.1zM453.42 719.75c0-.53-.1-1.03-.3-1.5-.2-.46-.5-.87-.88-1.2a4.17 4.17 0 0 0-1.43-.82c-.58-.2-1.25-.3-2-.3-.42 0-.87.01-1.33.04-.46.02-.85.08-1.18.16v7.45a20.57 20.57 0 0 0 2.21.12c1.72 0 2.97-.35 3.75-1.07a3.72 3.72 0 0 0 1.16-2.88zm1.05 12.83l-4.88-7.23a14.59 14.59 0 0 1-1.22.05 48.25 48.25 0 0 1-2.07-.05v7.23h-2v-18.15c.67-.08 1.36-.15 2.04-.21a25.9 25.9 0 0 1 2.17-.1c1.19 0 2.22.15 3.1.42.89.28 1.62.66 2.2 1.15.6.5 1.03 1.08 1.32 1.75.3.68.44 1.4.44 2.19 0 1.28-.34 2.38-1.03 3.3a5.76 5.76 0 0 1-2.97 2l5.33 7.65h-2.43zM466.84 717.95l-3.37 7.88h6.75l-3.38-7.88zm6.28 14.63l-2.18-5.08h-8.2l-2.17 5.08h-2.08l8.23-18.65h.32l8.23 18.65h-2.15zM494.67 719.75c0-.53-.1-1.03-.3-1.5-.2-.46-.5-.87-.88-1.2a4.17 4.17 0 0 0-1.43-.82c-.58-.2-1.24-.3-2-.3-.42 0-.87.01-1.33.04-.46.02-.85.08-1.18.16v7.45a20.57 20.57 0 0 0 2.22.12c1.71 0 2.96-.35 3.74-1.07a3.72 3.72 0 0 0 1.16-2.88zm1.05 12.83l-4.88-7.23a14.16 14.16 0 0 1-1.23.05 48.18 48.18 0 0 1-2.06-.05v7.23h-2v-18.15c.67-.08 1.36-.15 2.04-.21a25.9 25.9 0 0 1 2.18-.1c1.18 0 2.21.15 3.1.42.88.28 1.61.66 2.2 1.15.58.5 1.01 1.08 1.3 1.75.3.68.45 1.4.45 2.19 0 1.28-.35 2.38-1.03 3.3a5.76 5.76 0 0 1-2.97 2l5.33 7.65h-2.43zM515.2 726c0 1.07-.18 2.03-.5 2.88a6 6 0 0 1-3.62 3.52c-.84.32-1.78.48-2.82.48-1.04 0-2-.15-2.85-.45a5.74 5.74 0 0 1-3.53-3.5 8.2 8.2 0 0 1-.49-2.93v-11.75h2v11.6c0 .92.12 1.7.36 2.37.25.66.58 1.2 1 1.62.43.43.94.74 1.54.94.6.2 1.26.3 1.97.3.72 0 1.38-.1 1.98-.3a4.1 4.1 0 0 0 2.6-2.56c.23-.66.35-1.45.35-2.37v-11.6h2V726zM534.12 732.93l-11.9-14.25v13.9h-2V714l.4-.1 11.75 14.03v-13.68h2v18.6l-.25.08zM553.51 732.93l-11.9-14.25v13.9h-2V714l.41-.1 11.75 14.03v-13.68h2v18.6l-.26.08zM559.15 714.25h2v18.33h-2zM580.42 732.93l-11.9-14.25v13.9h-2V714l.4-.1 11.74 14.03v-13.68h2v18.6l-.24.08zM601.8 723.5v7.23c-.94.7-1.95 1.23-3.03 1.6a11.4 11.4 0 0 1-7.35-.13 9.74 9.74 0 0 1-3.14-1.9 9.17 9.17 0 0 1-2.99-6.87c0-1.43.28-2.73.84-3.9a9.6 9.6 0 0 1 5.25-4.9 9.4 9.4 0 0 1 3.49-.68 12.28 12.28 0 0 1 3.83.62c.55.19 1.06.42 1.55.7.5.27.99.58 1.47.9l-1.05 1.58c-.85-.61-1.78-1.1-2.78-1.46-1-.36-2-.54-3-.54-1.17 0-2.2.21-3.13.63a6.94 6.94 0 0 0-3.8 4.14 8.6 8.6 0 0 0-.5 2.9 7.69 7.69 0 0 0 2.24 5.47 7.68 7.68 0 0 0 5.42 2.21c.9 0 1.72-.1 2.46-.3.74-.2 1.48-.51 2.21-.95v-4.47h-4.85v-1.88h6.86zM620.17 716.05v16.53h-2v-16.53h-6.13v-1.8h14.23v1.8h-6.1zM630.14 732.58v-18.33h10.73v1.8h-8.73v6.33H640v1.8h-7.85v6.6h8.73v1.8h-10.73zM652.22 717.95l-3.38 7.88h6.75l-3.37-7.88zm6.27 14.63l-2.17-5.08h-8.2l-2.18 5.08h-2.07l8.22-18.65h.33l8.22 18.65h-2.15zM679.61 732.58l-.27-12.95-6.5 11.07h-.27l-6.55-11.1-.23 12.98h-2.03l.7-18.63.38-.05 7.95 13.8 7.75-13.8.4.05.7 18.63h-2.03z" fill="#666" fill-rule="nonzero"/></g></svg>
