<svg xmlns="http://www.w3.org/2000/svg" width="132" height="120"><g fill="#000" fill-rule="evenodd"><path d="M40.6 79.4l-3.4 3.3-2.7-3.3h6zm-10-4.9h14.9L42 78h-8.8l-2.7-3.4zm70.9 0l-2.6 3.3-1.1-3.3h3.7zM49 69.7c.2.5 0 1.2-.4 1.6L47 73H29.4a298 298 0 01-2.6-3.3h22.3zm56.1 0l-2.6 3.3h-5.3l-.7-1.9c-.1-.3-.4-.6-.7-.8l-1.1-.6h10.4zm-82-4.9H47l1.5 3.4H25.7l-2.4-3.4zm85.6 0l-2.5 3.4H92.1l-6-3.3h22.7zM20 60h24.7l1.5 3.3h-24c-1-1.3-1.7-2.5-2.2-3.3zm91.8 0l-2 3.3h-25L82.9 60h29.1zM45.4 55L44.2 57c-.3.4-.3 1-.1 1.4v.2H19.7c0-.7 0-1.9.3-3.4h25.4zm66.7 0l.3 3.4H81.8l-2.1-3.4H112zm-91.3-4.8h28l-2.3 3.4H20.2l.6-3.4zm90.5 0l.6 3.4H78.7l-2.2-3.4h34.8zm-89.6-4.9h30.5L50 48.8H21l.7-3.4zm88.7 0l.6 3.4H75.5l-2.1-3.4h37zm-87.7-4.8h33L53.2 44H22l.7-3.4zm86.6 0l.7 3.4H72.4l-2.2-3.4h39.1zM24 35.8H59L56.7 39H23l.8-3.3zm84.3 0l.8 3.3H69.3L67 35.8h41.1zm-84-1.5A78.3 78.3 0 0129 18.9C31.2 16 62.4 1 66 1c3.6 0 34.9 15 37.2 17.9.9 1.2 2.8 7.8 4.6 15.4H66.1l-1.7-2.7a1.4 1.4 0 00-2.4 0l-2 2.7H24.3zM30.8 116.4c1.1-.3 1.8-1 1.8-2.2 0-1-.7-1.7-2-1.7H29v.1l-1 6 .2.2h.5l.2-.1.3-2.3h.9l1.2 2.3H32l-1.2-2.3zm-1.2-3.1h1c.6 0 1.2.2 1.2 1s-.6 1.4-1.6 1.4h-1l.4-2.4zM44.8 112.5h-.6l-.1.1-.5 3.7c-.2 1.2-1 1.8-1.8 1.8s-1.3-.6-1.1-1.7l.5-3.7-.1-.2h-.6l-.2.1-.5 3.7c-.2 1.7.6 2.6 2 2.6 1.3 0 2.4-.9 2.6-2.5l.5-3.7-.1-.2zM57.2 112.5h-.6l-.1.1-.7 5-2.2-5h-.9l-1 6 .2.2h.6l.1-.1.7-5 2.2 5H56.4l1-6-.2-.2zM69.7 112.5H69l-.1.1-.7 5-2.2-5H65.2h-.1l-.8 6v.2h.7v-.1l.8-5 2.2 5h1l.8-6-.1-.2zM77.5 112.6l-.8 6 .1.2h.6l.1-.2.9-6H77.5zM90.7 112.5h-.5l-.2.1-.7 5-2.2-5h-1l-.8 6 .1.2h.6l.1-.1.7-5 2.2 5H90l.9-6c0-.1 0-.2-.2-.2zM103.9 115.5h-2.6l-.2.1v.6h2c-.1 1.1-1 2-2.3 2-1.2 0-2-1-2-2.1 0-1.5 1.2-2.8 2.7-2.8.6 0 1.1.2 1.5.5.1.1.2.1.2 0l.4-.3v-.1c-.5-.6-1.2-1-2-1-2 0-3.7 1.8-3.7 3.7 0 1.6 1.2 2.8 2.8 2.8 1.8 0 3-1.2 3.3-3v-.2l-.1-.2zM5 88.7c0-1.2 1.2-2 2.8-2 1.2 0 2 .4 3.1 1.2.2.1.5.2.7 0l1.4-1.4c.2-.2.2-.4 0-.7a6.3 6.3 0 00-5.1-2.4c-3.3 0-6.2 2.2-6.2 5.6 0 4.9 7.4 4.3 7.4 7.1 0 1.4-1.5 2.4-3.1 2.4-1.5 0-2.6-.6-3.8-1.6-.2-.2-.4-.2-.6 0L.1 98.1c-.1.2-.2.4 0 .6 1 1.5 3 3 5.6 3 3.5 0 6.8-2.4 6.8-6 0-5.2-7.4-4.3-7.4-7zM27 89h-3c-.1 0-.3 0-.5.2L18.4 94l1.5-10.7c0-.2-.2-.4-.4-.4H17c-.2 0-.4 0-.4.3L14 101c0 .2 0 .4.3.4H17c.2 0 .4-.2.4-.4l.4-2.8 2-1.9 3 4.8c.1.2.3.3.5.3h2.8c.3 0 .3-.1.1-.4l-4-6.8 5-4.7c.3-.2.1-.5-.2-.5zM41.3 89h-2.7c-.2 0-.4 0-.5.3l-4.2 8.2-2-8.2c0-.1-.1-.3-.3-.3h-2.7c-.2 0-.3 0-.2.3l3 12.1-2.4 4.3c-.1.3 0 .5.3.5h2.6c.2 0 .4 0 .5-.3l8.9-16.4c.1-.3 0-.5-.3-.5zM60.3 92a4.4 4.4 0 002.8-4.4c0-2.2-1.6-4-4.8-4h-6c-.2 0-.3 0-.3.3l-2.4 17c0 .2.2.5.4.5h6c4.3 0 7.2-1.8 7.2-5.6 0-2-1.3-3.5-3-3.9zm-.5-4c0 1.5-1 2.6-2.7 2.6h-2.6l.6-4h2.7c1.2 0 2 .4 2 1.4zm-3.4 10.3h-3l.7-4.8h3.1c1.7 0 2.6.6 2.6 1.8 0 1.8-1.3 3-3.4 3zM67.4 83.2L64.9 101c0 .2 0 .4.3.4h2.6c.2 0 .4-.2.4-.4l2.5-17.7c0-.2-.2-.4-.4-.4h-2.5c-.3 0-.4 0-.4.3zM84.9 89h-2.3c-.2 0-.3 0-.4.2l-.2 1.4c-.8-1.1-2-2-3.7-2-3.8 0-6.8 3.5-6.8 7.5 0 3.2 2 5.6 5.3 5.6 1.4 0 2.7-.6 3.8-1.7v.9c0 .2.1.5.4.5h2.3c.2 0 .3 0 .4-.3l1.6-11.7c0-.2-.2-.5-.4-.5zm-7.5 9.7c-1.7 0-2.7-1.2-2.7-2.9 0-2.3 1.7-4.1 3.7-4.1 1.7 0 2.8 1.2 2.8 2.8 0 2.2-1.8 4.2-3.8 4.2zM98.3 89.4c0-.2-.2-.4-.4-.4H88c-.2 0-.3 0-.4.2l-.2 2c0 .2.2.5.4.5h6l-7.3 6.7-.2.4-.3 2.1c0 .2.2.5.4.5h9.8c.2 0 .3 0 .3-.3l.3-2c0-.2-.1-.4-.4-.4h-6l7.3-6.7c.2-.1.2-.3.2-.5l.3-2zM105.9 88.6a7.2 7.2 0 00-7 6.4c-.5 3.7 1.8 6.7 5.7 6.7 1.8 0 3.5-.6 4.8-1.7.3-.2.2-.5 0-.7l-1-1.1c-.2-.2-.4-.3-.6-.1-.9.6-1.7.9-2.8.9-1.9 0-3-1-3-2.6h8c.8 0 1-.4 1-1.3.5-3.5-1.4-6.5-5.1-6.5zm-.2 2.9c1.5 0 2.6 1 2.5 2.7h-5.9c.6-1.7 2-2.7 3.4-2.7zM122.2 89.3c-.3-.3-1-.7-1.7-.7-1.4 0-2.5.8-3.3 2v-1.2c.1-.2 0-.5-.3-.5h-2.4c-.2 0-.4.1-.4.4l-1.7 11.7c0 .2.2.4.4.4h2.6c.2 0 .4-.2.4-.4l1-6.5a3.2 3.2 0 013-2.8h1c.3.1.4.2.6 0l1-1.8c0-.2 0-.4-.2-.6zM126.3 92.5c0-.8.8-1.2 1.7-1.2.8 0 1.4.3 2.4 1 .2.1.3.2.5 0l1-1.1c.2-.2 0-.3 0-.6-.9-1.2-2.4-2-4-2-2.4 0-4.8 1.4-4.8 4 0 3.6 5.3 3.2 5.3 5 0 .9-1 1.3-1.9 1.3-.9 0-2-.4-3-1-.1-.2-.4-.3-.5 0l-1 1v.6a5.3 5.3 0 004.5 2.2c2.6 0 5.2-1.6 5.2-4.3 0-3.8-5.4-3-5.4-4.9z"/></g></svg>
