<svg width="131" height="110" xmlns="http://www.w3.org/2000/svg"><g fill="none" fill-rule="evenodd"><path d="M130.6 89.92H0L65.3 0l65.3 89.92zM69.18 13.14l-10.19 3.34-50 68.86H121.6l-52.43-72.2z" fill="#000"/><path fill="#0EBBFF" d="M105.03 20.3L49.64 37.6l-3.2 7.9 55.39-17.3z"/><path fill="#1CFF95" d="M95.88 42.86l-29.96 9.36-3.2 7.89 29.96-9.36z"/><path fill="#02C460" d="M91.3 54.14l-55.38 17.3-3.2 7.89 55.38-17.3z"/><path fill="#3EFFFF" d="M78.94 38.3L45.07 48.88l-3.2 7.9L75.73 46.2z"/><path d="M14.17 101.51c0-.69.62-1.23 1.67-1.23.94 0 1.87.37 2.79 1.06l.97-1.37a5.69 5.69 0 0 0-3.73-1.29c-2.03 0-3.5 1.2-3.5 3 0 1.9 1.23 2.54 3.42 3.07 1.9.44 2.31.84 2.31 1.58 0 .8-.7 1.3-1.82 1.3a4.72 4.72 0 0 1-3.23-1.33l-1.09 1.3a6.32 6.32 0 0 0 4.28 1.64c2.15 0 3.66-1.15 3.66-3.08 0-1.72-1.12-2.5-3.3-3.02-1.96-.47-2.43-.82-2.43-1.63zM26.52 103.24l4.26-4.41h-2.21l-4.88 5.16v-5.16h-1.8v10.26h1.8v-2.98l1.6-1.64 3.5 4.62h2.18zM37.01 105l4.07-6.17h-2.06l-2.9 4.54-2.88-4.54h-2.12l4.07 6.21v4.05h1.82zM51.23 98.83h-4.6v10.26h4.74c2.3 0 3.8-.98 3.8-2.83 0-1.4-.84-2.1-2.04-2.5.77-.4 1.47-1.05 1.47-2.3 0-1.62-1.3-2.63-3.37-2.63zm-.37 4.32H48.4v-2.72H51c1.15 0 1.8.48 1.8 1.32 0 .95-.78 1.4-1.94 1.4zm.53 4.34h-3v-2.81h2.87c1.42 0 2.1.51 2.1 1.39 0 .94-.74 1.42-1.97 1.42zM57.65 109.09h7.2v-1.64h-5.4v-8.62h-1.8zM72.47 98.76h-1.68l-4.5 10.33h1.84l1.05-2.48h4.85l1.04 2.48h1.91l-4.51-10.33zm.9 6.26h-3.53l1.76-4.1 1.77 4.1zM84.72 100.43l-6.05 7.33v1.33h8.4v-1.6H81l6.05-7.33v-1.33h-8.2v1.6zM97.37 98.83h-7.6v10.26h7.67v-1.61h-5.88v-2.76h5.15v-1.61h-5.15v-2.67h5.8zM108.73 109.09l-2.77-3.88c1.43-.4 2.45-1.43 2.45-3.13 0-2-1.46-3.25-3.82-3.25h-4.57v10.26h1.8v-3.58h2.26l2.52 3.58h2.13zm-2.16-6.9c0 1.05-.82 1.73-2.1 1.73h-2.65v-3.45h2.63c1.33 0 2.12.59 2.12 1.72zM112.44 101.51c0-.69.61-1.23 1.67-1.23.94 0 1.86.37 2.78 1.06l.97-1.37a5.69 5.69 0 0 0-3.72-1.29c-2.04 0-3.5 1.2-3.5 3 0 1.9 1.22 2.54 3.4 3.07 1.91.44 2.32.84 2.32 1.58 0 .8-.7 1.3-1.81 1.3a4.72 4.72 0 0 1-3.24-1.33l-1.09 1.3a6.32 6.32 0 0 0 4.28 1.64c2.16 0 3.67-1.15 3.67-3.08 0-1.72-1.13-2.5-3.3-3.02-1.96-.47-2.43-.82-2.43-1.63z" fill="#000"/></g></svg>
